<svg width="16" height="16" viewBox="0 0 16 16" fill="none" xmlns="http://www.w3.org/2000/svg">
  <path fill-rule="evenodd" clip-rule="evenodd" d="M1 2.75C1 2.33579 1.33579 2 1.75 2H4.25C4.66421 2 5 2.33579 5 2.75V5.25C5 5.66421 4.66421 6 4.25 6H1.75C1.33579 6 1 5.66421 1 5.25V2.75ZM2.5 3.5V4.5H3.5V3.5H2.5Z" fill="currentColor"/>
  <path fill-rule="evenodd" clip-rule="evenodd" d="M7 2.75C7 2.33579 7.33579 2 7.75 2H14.25C14.6642 2 15 2.33579 15 2.75V5.25C15 5.66421 14.6642 6 14.25 6H7.75C7.33579 6 7 5.66421 7 5.25V2.75ZM8.5 3.5V4.5H13.5V3.5H8.5Z" fill="currentColor"/>
  <path fill-rule="evenodd" clip-rule="evenodd" d="M1 8.75C1 8.33579 1.33579 8 1.75 8H4.25C4.66421 8 5 8.33579 5 8.75V11.25C5 11.6642 4.66421 12 4.25 12H1.75C1.33579 12 1 11.6642 1 11.25V8.75ZM2.5 9.5V10.5H3.5V9.5H2.5Z" fill="currentColor"/>
  <path fill-rule="evenodd" clip-rule="evenodd" d="M7 8.75C7 8.33579 7.33579 8 7.75 8H14.25C14.6642 8 15 8.33579 15 8.75V11.25C15 11.6642 14.6642 12 14.25 12H7.75C7.33579 12 7 11.6642 7 11.25V8.75ZM8.5 9.5V10.5H13.5V9.5H8.5Z" fill="currentColor"/>
</svg>