<svg width="16" height="16" viewBox="0 0 16 16" fill="none" xmlns="http://www.w3.org/2000/svg">
  <path fill-rule="evenodd" clip-rule="evenodd" d="M8.75 1C8.75 0.585786 8.41421 0.25 8 0.25C7.58579 0.25 7.25 0.585786 7.25 1V2.25H2.75C2.33579 2.25 2 2.58579 2 3V5C2 5.41421 2.33579 5.75 2.75 5.75H7.25V6.25H3.75C3.33579 6.25 3 6.58579 3 7V9C3 9.41421 3.33579 9.75 3.75 9.75H7.25V15C7.25 15.4142 7.58579 15.75 8 15.75C8.41421 15.75 8.75 15.4142 8.75 15V9.75H12.25C12.6642 9.75 13 9.41421 13 9V7C13 6.58579 12.6642 6.25 12.25 6.25H8.75V5.75H13.25C13.6642 5.75 14 5.41421 14 5V3C14 2.58579 13.6642 2.25 13.25 2.25H8.75V1ZM3.5 3.75V4.25H12.5V3.75H3.5ZM4.5 7.75V8.25H11.5V7.75H4.5Z" fill="currentColor"/>
</svg>