<svg width="16" height="16" viewBox="0 0 16 16" fill="none" xmlns="http://www.w3.org/2000/svg">
  <path fill-rule="evenodd" clip-rule="evenodd" d="M6 2.5C6 2.22386 6.22386 2 6.5 2H9.5C9.77614 2 10 2.22386 10 2.5V3H12.25C12.6642 3 13 3.33579 13 3.75C13 4.16421 12.6642 4.5 12.25 4.5H11V12.5C11 13.3284 10.3284 14 9.5 14H6.5C5.67157 14 5 13.3284 5 12.5V4.5H3.75C3.33579 4.5 3 4.16421 3 3.75C3 3.33579 3.33579 3 3.75 3H6V2.5ZM6.5 4.5V12.5H9.5V4.5H6.5Z" fill="currentColor"/>
  <path fill-rule="evenodd" clip-rule="evenodd" d="M7 6C7.27614 6 7.5 6.22386 7.5 6.5V10.5C7.5 10.7761 7.27614 11 7 11C6.72386 11 6.5 10.7761 6.5 10.5V6.5C6.5 6.22386 6.72386 6 7 6Z" fill="currentColor"/>
  <path fill-rule="evenodd" clip-rule="evenodd" d="M9 6C9.27614 6 9.5 6.22386 9.5 6.5V10.5C9.5 10.7761 9.27614 11 9 11C8.72386 11 8.5 10.7761 8.5 10.5V6.5C8.5 6.22386 8.72386 6 9 6Z" fill="currentColor"/>
</svg>